<?xml version="1.0" encoding="utf-8"?>
<!-- Generator: Adobe Illustrator 19.2.1, SVG Export Plug-In . SVG Version: 6.00 Build 0)  -->
<svg version="1.1" id="Layer_1" xmlns="http://www.w3.org/2000/svg" xmlns:xlink="http://www.w3.org/1999/xlink" x="0px" y="0px"
	 viewBox="0 0 294.2 76.7" style="enable-background:new 0 0 294.2 76.7;" xml:space="preserve">
<style type="text/css">
	.st0{fill:#222421;}
</style>
<path class="st0" d="M0.4,5c0.8-1.1,72-5,72-5l1.4,3.1l9.9,8.4l3-0.3c0,0,9.4-0.4,11.9,0.3c2.5,0.7,8.7,3.1,9.3,3.4
	c0.6,0.3,0,1.8,0,1.8s9.2,2.5,13.4,5.6c4.2,3.1,5.5,5.3,5.5,5.3l0.4,0.7l-1.4,1.4l7.2-0.1l0.8-1.1c0,0,5.8,0.2,6.3,0.2
	c0.6,0,3,2.4,3,2.4l33.7-0.3l0.6-1.6h1.6l0.6,1.7h7.7l1.1-1.2h2.8l1.3,1.4l1.2-1.3h6.7v0.8h2v-1.6h10.5v8.3h-9.6V36h-2.6v3.2v0.6
	l93.6-1.7l-45.4,17.3c0,0-12.5,4.8-23.6,5.5c-11.1,0.8-44.2,0.5-44.2,0.5l20.8-12.3l-4.5-0.2c0,0-17.9,6.9-20.5,8.6
	c-2.6,1.7-3.8,2.8-3.8,2.8l-0.7,1l-28.5-0.4l4.4-4c0,0-7.2,0.7-7.9,1.5c-0.7,0.8-3.4,2.9-3.4,2.9h-7v1.7h-1.4v-1.3h-2.2v1.8h-2v-1.1
	L96.1,67c0,0-1.5-0.3-1.9-0.3c-0.4-0.1,0-2.8,0-2.8l-6.5,0.5c0,0-1,2.4-2.3,2.7s-2.9,0-2.9,0l-1.1,9.8H71.3L67.1,67L63,66.4
	l-0.4-4.1c0,0-1.8-1.3-2.2-2.1s-0.8-2.7-0.6-3.5s7.2-7.8,7.2-7.8L51.6,30.4v-2.9c0,0-4-1.3-6.2-1.4s-6.9,0-6.9,0L37.8,27l-5.9-0.5
	c0,0,0.1-0.9,0-0.8c-0.1,0.1-2.1,0-2.1,0v1.1l-3.1-0.3l-1.1-1.8L19,24.1l-1.7-2.4l-5.2,0.5l-2.2-3l2.2-2.1l-4.3-2.7L6.3,10H0.1
	C0.1,10-0.3,6.1,0.4,5z M191,39.1l-5-3.1h-5.6l-1.3,1.3h-1.8l-1.2-1.2h-25.4l-12.6,3L191,39.1L191,39.1z"/>
</svg>
