<?xml version="1.0" encoding="utf-8"?>
<!-- Generator: Adobe Illustrator 19.2.1, SVG Export Plug-In . SVG Version: 6.00 Build 0)  -->
<svg version="1.1" id="Layer_1" xmlns="http://www.w3.org/2000/svg" xmlns:xlink="http://www.w3.org/1999/xlink" x="0px" y="0px"
	 viewBox="0 0 254.7 53.3" style="enable-background:new 0 0 254.7 53.3;" xml:space="preserve">
<style type="text/css">
	.st0{fill:#222421;}
</style>
<polygon class="st0" points="254.7,37.6 246.6,46.5 243.6,46.5 243.6,49.1 204.2,50.6 168.1,50.6 166.7,48.7 163.4,47 145.8,48.2 
	127.4,46.1 119.8,50.6 119.8,53.3 105.7,53.3 105.7,49.5 83.8,47.8 61.8,46.5 58.9,42 56.4,43.3 37.2,41 37.2,33.4 45.1,32.1 
	45.2,21.1 13.3,15.1 0,3.1 2.1,2.1 65,8.8 68.4,6.1 74.8,9.5 88,11.2 96.8,11.2 96.4,8.2 111,8.1 112.7,9.6 118.4,9.2 123.9,4.1 
	124.9,0 133.9,0 134.8,2 144,3.8 177.6,4 181.1,2.3 181.1,9.2 177.6,7.5 145.4,7.5 143.8,9.1 151.4,16.7 161.3,16.7 162.7,15.1 
	174.7,16.5 213.2,18.4 230.2,28.7 "/>
</svg>
